<?xml version="1.0" encoding="UTF-8" standalone="no"?>
<!DOCTYPE svg PUBLIC "-//W3C//DTD SVG 1.1//EN" "http://www.w3.org/Graphics/SVG/1.1/DTD/svg11.dtd">
<svg width="100%" height="100%" viewBox="0 0 736 853" version="1.1" xmlns="http://www.w3.org/2000/svg" xmlns:xlink="http://www.w3.org/1999/xlink" xml:space="preserve" xmlns:serif="http://www.serif.com/" style="fill-rule:evenodd;clip-rule:evenodd;stroke-linecap:round;stroke-linejoin:round;">
    <g id="Pen" transform="matrix(1.73776e-16,2.83798,-2.83798,1.73776e-16,3487.07,915.162)">
        <path id="STROKE_c1d3fe12-5e04-4d2f-ba5e-767a91772cf4" d="M-229.277,1166.88C-230.47,1166.9 -230.889,1166.9 -230.533,1166.9C-230.676,1166.9 -231.133,1166.91 -231.904,1166.92C-230.846,1167.02 -230.441,1167.07 -230.688,1167.05C-231.171,1167.1 -228.23,1167.9 -221.863,1169.45C-215.496,1171 -210.393,1172.27 -206.553,1173.26C-202.713,1174.24 -199.77,1175.09 -197.723,1175.81C-195.676,1176.52 -193.743,1177.33 -191.922,1178.23L-191.921,1178.28C-192.343,1178.73 -194.733,1177.92 -199.092,1175.85C-203.45,1173.78 -207.551,1170.85 -211.396,1167.07C-215.241,1163.29 -218.479,1159.9 -221.111,1156.88C-223.742,1153.87 -225.599,1148.85 -226.682,1141.82C-225.783,1140.64 -223.238,1141.29 -219.047,1143.76C-214.856,1146.22 -211.409,1148.08 -208.704,1149.33C-205.999,1150.58 -203.849,1151.24 -202.254,1151.32C-200.659,1151.39 -199.151,1151.47 -197.73,1151.57C-196.309,1151.66 -195.259,1151.22 -194.58,1150.26C-193.901,1149.29 -193.39,1147.43 -193.048,1144.67C-192.706,1141.91 -193.623,1138.3 -195.799,1133.83" style="fill:none;fill-rule:nonzero;stroke:rgb(23,22,18);stroke-width:5.46px;"/>
        <path id="STROKE_6ffea953-62e8-4d24-a454-89bbd3a93b31" d="M-220.819,1117.34C-220.818,1117.38 -220.818,1117.42 -220.817,1117.46C-221.7,1117.47 -222.072,1117.48 -221.931,1117.48C-221.998,1117.48 -222.046,1117.44 -222.076,1117.36C-222.277,1117.53 -219.818,1118.52 -214.698,1120.33C-209.578,1122.13 -205.29,1123.59 -201.833,1124.7C-198.377,1125.81 -195.213,1126.79 -192.341,1127.65" style="fill:none;fill-rule:nonzero;stroke:rgb(23,22,18);stroke-width:6.75px;"/>
        <path id="STROKE_b929230f-6d9a-479d-a8db-4510dfe1eada" d="M-245.263,1110.42C-245.457,1110.96 -245.862,1109.64 -246.479,1106.45C-246.413,1106.41 -246.347,1106.37 -246.281,1106.33" style="fill:none;fill-rule:nonzero;stroke:rgb(23,22,18);stroke-width:5.9px;"/>
        <path id="STROKE_128a55c7-c672-439e-8452-c0ddf27b22af" d="M-219.261,1076.37C-219.874,1075.61 -220.128,1075.3 -220.021,1075.44C-221.05,1074.69 -221.44,1074.43 -221.192,1074.66C-222.255,1074.57 -222.843,1074.58 -222.958,1074.69C-223.072,1074.82 -223.13,1074.96 -223.131,1075.12C-223.132,1075.28 -223.128,1075.23 -223.118,1074.98C-223.108,1074.72 -223.242,1075.37 -223.521,1076.92C-223.8,1078.47 -223.818,1080.15 -223.574,1081.94C-223.329,1083.74 -222.166,1085.95 -220.083,1088.57C-218,1091.2 -215.431,1093.81 -212.377,1096.41C-209.322,1099.01 -206.438,1100.89 -203.725,1102.05C-201.011,1103.21 -198.773,1103.84 -197.012,1103.92C-195.251,1104 -193.551,1103.83 -191.914,1103.4C-190.276,1102.96 -189.574,1100.16 -189.809,1094.98C-190.043,1089.81 -191.298,1084.11 -193.574,1077.9" style="fill:none;fill-rule:nonzero;stroke:rgb(23,22,18);stroke-width:6.7px;"/>
        <path id="STROKE_8a8736d2-3ec6-41c7-94fe-5d51205e924d" d="M-259.963,1038.5C-259.962,1038.5 -259.961,1038.46 -259.959,1038.38C-259.956,1038.31 -260.203,1037.96 -260.698,1037.34C-260.098,1037.93 -259.243,1038.76 -258.134,1039.84C-257.025,1040.91 -254.739,1042.42 -251.276,1044.37C-247.813,1046.32 -244.694,1047.82 -241.917,1048.87C-239.14,1049.93 -236.795,1050.77 -234.88,1051.39C-232.965,1052.02 -231.201,1052.64 -229.586,1053.25C-227.971,1053.86 -223.874,1055.02 -217.294,1056.73C-210.714,1058.44 -203.099,1058.99 -194.448,1058.38C-194.251,1057.09 -194.197,1056.46 -194.284,1056.49C-193.313,1054.36 -204.466,1044.55 -227.743,1027.04C-227.796,1026.68 -225.719,1027.45 -221.512,1029.33C-217.306,1031.21 -213.286,1032.6 -209.452,1033.48C-205.618,1034.36 -202.528,1034.81 -200.181,1034.83C-197.834,1034.85 -195.813,1034.67 -194.12,1034.3C-192.426,1033.93 -191.11,1033.36 -190.173,1032.57C-189.235,1031.79 -188.436,1031.01 -187.776,1030.23C-187.117,1029.46 -186.209,1027.93 -185.052,1025.64" style="fill:none;fill-rule:nonzero;stroke:rgb(23,22,18);stroke-width:6.1px;"/>
        <path id="STROKE_86578627-2752-40cd-b3f5-d314b4145de2" d="M-156.091,1192.15C-156.091,1192.15 -155.883,1192.35 -155.468,1192.74C-155.052,1193.13 -154.974,1193.19 -155.234,1192.92C-154.023,1193.41 -153.601,1193.58 -153.967,1193.42C-153.585,1193.54 -153.165,1193.66 -152.707,1193.78C-152.249,1193.9 -151.962,1193.97 -151.847,1193.99C-151.732,1194.01 -151.527,1194.07 -151.232,1194.15C-150.937,1194.24 -150.774,1194.28 -150.745,1194.29C-150.715,1194.3 -150.4,1194.38 -149.799,1194.52C-149.198,1194.66 -145.062,1195.48 -137.391,1196.97C-129.719,1198.45 -121.866,1199.96 -113.831,1201.48C-113.488,1201.43 -113.638,1201.43 -114.281,1201.47C-114.924,1201.51 -116.77,1200.69 -119.821,1199.02C-122.872,1197.34 -125.769,1195.37 -128.511,1193.11C-131.252,1190.85 -133.351,1189.02 -134.807,1187.64C-136.264,1186.25 -137.829,1184.5 -139.503,1182.39C-141.177,1180.28 -142.204,1178.39 -142.583,1176.74C-142.962,1175.08 -143.253,1173.49 -143.456,1171.97C-143.66,1170.45 -142.021,1169.64 -138.538,1169.55C-135.055,1169.46 -131.208,1170.03 -126.997,1171.26C-122.785,1172.48 -116.954,1173.47 -109.505,1174.23" style="fill:none;fill-rule:nonzero;stroke:rgb(23,22,18);stroke-width:5.1px;"/>
        <path id="STROKE_44d4de84-f962-4c92-9087-d3070118d50e" d="M-133.282,1139.94C-133.058,1139.81 -134.64,1139.52 -138.027,1139.08C-138.114,1139.11 -138.361,1140.28 -138.77,1142.6C-139.179,1144.92 -138.394,1147.11 -136.415,1149.16C-134.436,1151.22 -132.262,1152.8 -129.895,1153.91C-127.527,1155.03 -125.433,1155.68 -123.612,1155.88C-121.791,1156.07 -120.118,1156.08 -118.591,1155.9C-117.065,1155.71 -116.084,1154.41 -115.647,1152C-115.21,1149.58 -115.491,1147.25 -116.492,1145C-117.492,1142.75 -118.492,1141.02 -119.493,1139.82C-120.494,1138.61 -122.017,1137.31 -124.064,1135.91C-126.111,1134.51 -127.936,1133.54 -129.537,1132.99C-131.138,1132.45 -132.711,1132.14 -134.256,1132.06C-135.087,1132.42 -134.245,1133.11 -131.73,1134.13C-129.214,1135.15 -127.032,1135.78 -125.183,1136.02C-123.335,1136.26 -121.971,1136.36 -121.09,1136.32C-120.209,1136.28 -119.029,1136.17 -117.55,1135.99C-116.071,1135.81 -114.251,1133.84 -112.092,1130.06" style="fill:none;fill-rule:nonzero;stroke:rgb(23,22,18);stroke-width:5.74px;"/>
        <path id="STROKE_9cdaf386-1c98-4d64-b691-7f4dbe6ee31e" d="M-143.457,1107.29C-142.964,1107.39 -142.833,1107.4 -143.065,1107.31C-143.297,1107.22 -142.982,1107.38 -142.12,1107.79C-141.259,1108.21 -137.727,1109.09 -131.526,1110.44C-125.325,1111.8 -119.154,1113.08 -113.011,1114.29C-113.329,1114.55 -115.468,1113.73 -119.428,1111.82C-123.388,1109.91 -126.476,1107.99 -128.692,1106.05C-130.909,1104.12 -132.701,1102.47 -134.068,1101.09C-135.435,1099.71 -135.644,1097.51 -134.693,1094.49C-133.028,1092.93 -126.333,1093.96 -114.606,1097.59C-115.267,1097.58 -117.382,1096.42 -120.952,1094.12C-124.522,1091.82 -127.599,1089.46 -130.183,1087.03C-132.766,1084.6 -134.62,1082.63 -135.743,1081.14C-136.866,1079.64 -137.549,1078.54 -137.792,1077.82C-138.034,1077.1 -138.162,1075.78 -138.176,1073.88C-138.19,1071.97 -137.14,1070.9 -135.025,1070.66C-132.911,1070.41 -130.423,1070.58 -127.562,1071.14C-124.701,1071.7 -122.257,1072.31 -120.23,1072.98C-118.203,1073.64 -116.217,1074.41 -114.274,1075.28" style="fill:none;fill-rule:nonzero;stroke:rgb(23,22,18);stroke-width:4.87px;"/>
        <path id="STROKE_ff942ae2-b836-4629-bd49-55e07777a9cb" d="M-122.17,1063.95C-121.417,1064.88 -122.389,1062.86 -125.087,1057.88C-127.784,1052.91 -130.238,1048.99 -132.449,1046.11C-134.66,1043.23 -136.208,1041.3 -137.093,1040.3C-137.978,1039.31 -138.842,1038.47 -139.687,1037.81C-140.532,1037.14 -141.889,1036.77 -143.76,1036.71C-144.015,1036.73 -144.202,1037.98 -144.323,1040.46C-144.444,1042.93 -143.752,1045.34 -142.246,1047.69C-140.74,1050.03 -138.729,1052.17 -136.213,1054.1C-133.696,1056.03 -130.969,1057.37 -128.03,1058.12C-125.091,1058.87 -122.601,1059.21 -120.562,1059.13C-118.523,1059.05 -116.859,1058.93 -115.572,1058.75C-114.285,1058.57 -112.883,1057.77 -111.366,1056.34C-109.85,1054.91 -109.133,1052.8 -109.214,1050.02C-109.295,1047.24 -110.747,1043.65 -113.568,1039.25" style="fill:none;fill-rule:nonzero;stroke:rgb(23,22,18);stroke-width:6.03px;"/>
        <path id="STROKE_dd2e9667-c9be-42bd-95dc-f70e2ddc687a" d="M-144.556,1002.89L-144.556,1002.86C-144.557,1002.84 -144.588,1002.71 -144.649,1002.45C-144.152,1002.37 -145.035,1002.29 -147.297,1002.2C-147.874,1003.65 -148.087,1004.23 -147.936,1003.94C-148.314,1005.88 -148.444,1006.59 -148.326,1006.07C-148.345,1007.12 -148.396,1008.71 -148.477,1010.82C-148.559,1012.93 -148.325,1014.56 -147.775,1015.69C-147.226,1016.82 -146.676,1017.66 -146.126,1018.2C-145.577,1018.74 -145.11,1019.13 -144.727,1019.38C-144.344,1019.62 -144.207,1019.69 -144.315,1019.6C-144.423,1019.5 -144.478,1019.49 -144.479,1019.56C-144.48,1019.63 -143.616,1019.87 -141.886,1020.27C-140.155,1020.67 -139.004,1020.86 -138.431,1020.82C-137.858,1020.79 -137.118,1020.24 -136.211,1019.16C-135.304,1018.08 -134.562,1016.9 -133.984,1015.6C-133.405,1014.31 -132.739,1013.18 -131.985,1012.22C-131.231,1011.27 -130.417,1010.28 -129.544,1009.26C-128.671,1008.24 -127.307,1007.45 -125.452,1006.87C-123.597,1006.29 -122.053,1006.01 -120.822,1006.04C-119.591,1006.06 -118.484,1006.47 -117.501,1007.25C-116.518,1008.04 -115.818,1008.76 -115.401,1009.41C-114.983,1010.07 -114.402,1011.43 -113.659,1013.5C-112.916,1015.57 -112.708,1017.51 -113.035,1019.33C-113.363,1021.15 -114.194,1022.86 -115.527,1024.45" style="fill:none;fill-rule:nonzero;stroke:rgb(23,22,18);stroke-width:4.88px;"/>
        <path id="STROKE_04cb8a62-7ffa-40f7-b84c-59ec7fcc6e67" d="M-244.258,975.387C-244.394,975.629 -244.502,975.785 -244.581,975.854C-244.661,975.923 -245.681,976.17 -247.641,976.593C-247.72,976.664 -247.428,976.756 -246.763,976.867C-246.098,976.979 -245.007,977.075 -243.489,977.156C-241.97,977.237 -240.143,977.207 -238.006,977.065C-235.869,976.923 -233.641,976.777 -231.324,976.626C-229.007,976.475 -226.788,976.363 -224.669,976.29C-222.549,976.217 -220.928,976.167 -219.807,976.138C-218.685,976.109 -217.834,976.095 -217.254,976.095C-216.675,976.096 -215.552,976.074 -213.886,976.03C-212.219,975.986 -210.333,975.931 -208.227,975.864C-206.12,975.797 -204.169,975.689 -202.373,975.54C-200.577,975.391 -198.183,975.23 -195.19,975.055C-192.197,974.88 -189.324,974.735 -186.571,974.618C-183.818,974.502 -181.349,974.446 -179.162,974.451C-176.975,974.456 -175.297,974.47 -174.126,974.493C-172.956,974.516 -171.999,974.542 -171.255,974.573C-170.512,974.604 -168.634,974.622 -165.621,974.626C-162.608,974.629 -159.639,974.559 -156.714,974.416C-153.789,974.273 -150.962,974.219 -148.234,974.256C-145.506,974.293 -143.46,974.356 -142.097,974.447C-140.733,974.537 -139.666,974.608 -138.897,974.659C-138.128,974.71 -137.293,974.769 -136.394,974.836C-135.495,974.904 -134.772,974.971 -134.225,975.036C-133.679,975.101 -131.95,975.26 -129.038,975.512C-126.127,975.764 -123.882,975.951 -122.304,976.072C-120.726,976.194 -119.345,976.307 -118.16,976.411C-116.975,976.516 -115.778,976.6 -114.57,976.665C-113.362,976.73 -112.371,976.775 -111.597,976.802C-110.823,976.829 -109.576,976.823 -107.856,976.782C-106.136,976.742 -104.007,976.679 -101.469,976.592" style="fill:none;fill-rule:nonzero;stroke:rgb(23,22,18);stroke-width:7.7px;"/>
        <path id="STROKE_16cb03ef-93e7-4d47-8759-8be4b5cc3b58" d="M-92.693,1222.04C-92.629,1221.85 -92.315,1221.91 -91.752,1222.22C-91.759,1222.08 -93.432,1222.03 -96.773,1222.06C-100.114,1222.08 -102.936,1222.09 -105.239,1222.07C-107.542,1222.06 -109.232,1222.04 -110.307,1222.02C-111.382,1222.01 -112.347,1221.96 -113.202,1221.9C-114.056,1221.83 -115.471,1221.77 -117.446,1221.72C-119.421,1221.67 -120.951,1221.65 -122.035,1221.66C-123.118,1221.67 -123.972,1221.66 -124.597,1221.65C-125.222,1221.63 -126.415,1221.61 -128.175,1221.58C-129.935,1221.55 -132.207,1221.58 -134.991,1221.67C-137.775,1221.76 -140.072,1221.78 -141.883,1221.74C-143.694,1221.7 -145.131,1221.65 -146.194,1221.59C-147.258,1221.53 -148.262,1221.5 -149.207,1221.51C-150.152,1221.52 -152.314,1221.43 -155.692,1221.24C-159.07,1221.04 -162.259,1220.87 -165.258,1220.73C-168.258,1220.59 -170.635,1220.47 -172.388,1220.37C-174.141,1220.27 -177.345,1220.15 -181.999,1220C-186.653,1219.86 -190.176,1219.76 -192.567,1219.71C-194.959,1219.66 -196.69,1219.63 -197.76,1219.61C-198.829,1219.58 -200.071,1219.58 -201.486,1219.58C-202.901,1219.59 -204.753,1219.63 -207.042,1219.72C-209.332,1219.8 -211.081,1219.85 -212.288,1219.85C-213.495,1219.85 -214.393,1219.85 -214.98,1219.84C-215.568,1219.83 -216.252,1219.83 -217.033,1219.84C-217.814,1219.85 -219.519,1219.91 -222.148,1220.02C-224.777,1220.13 -226.79,1220.21 -228.187,1220.26C-229.583,1220.32 -230.601,1220.35 -231.24,1220.37C-231.879,1220.38 -233.11,1220.43 -234.932,1220.5C-236.754,1220.58 -238.199,1220.67 -239.266,1220.8C-240.333,1220.92 -241.352,1220.97 -242.324,1220.95C-243.295,1220.93 -244.354,1220.67 -245.499,1220.16" style="fill:none;fill-rule:nonzero;stroke:rgb(23,22,18);stroke-width:7.15px;"/>
        <path id="STROKE_b1867edb-2ab5-4629-8714-ca1c0dbef57c" d="M-241.877,1224.23C-241.877,1224.23 -241.917,1224.23 -241.996,1224.22C-242.075,1224.22 -242.099,1224.22 -242.068,1224.21C-242.369,1224.1 -242.47,1224.06 -242.372,1224.08C-242.433,1224.04 -242.857,1223.42 -243.643,1222.22C-244.429,1221.02 -245.067,1220.02 -245.558,1219.21C-246.049,1218.4 -246.549,1217.58 -247.059,1216.75C-247.568,1215.92 -248.088,1215.09 -248.617,1214.28C-249.146,1213.46 -249.71,1212.62 -250.308,1211.75C-250.906,1210.88 -251.58,1209.93 -252.329,1208.9C-253.078,1207.88 -253.783,1206.92 -254.446,1206.03C-255.109,1205.15 -255.849,1204.13 -256.666,1202.97C-257.484,1201.82 -258.408,1200.57 -259.438,1199.22C-260.469,1197.87 -261.437,1196.53 -262.343,1195.22C-263.248,1193.9 -263.935,1192.9 -264.404,1192.22C-264.872,1191.54 -265.582,1190.5 -266.535,1189.09C-267.488,1187.68 -268.202,1186.62 -268.675,1185.89C-269.149,1185.17 -269.58,1184.51 -269.968,1183.91C-270.356,1183.32 -270.665,1182.85 -270.895,1182.49C-271.124,1182.14 -271.689,1181.27 -272.59,1179.89C-273.49,1178.51 -274.201,1177.41 -274.722,1176.59C-275.243,1175.76 -276.095,1174.39 -277.278,1172.48C-278.461,1170.57 -279.361,1169.07 -279.98,1167.97C-280.599,1166.87 -281.045,1166.06 -281.319,1165.53C-281.593,1165 -282.177,1163.95 -283.072,1162.39C-283.966,1160.84 -285.26,1158.3 -286.953,1154.78C-288.646,1151.26 -290.147,1147.97 -291.456,1144.92C-292.765,1141.88 -293.722,1139.64 -294.327,1138.21C-294.932,1136.78 -295.404,1135.71 -295.743,1135C-296.082,1134.28 -296.431,1133.47 -296.789,1132.57C-297.146,1131.66 -297.614,1130.57 -298.193,1129.28C-298.771,1127.98 -299.473,1126.43 -300.299,1124.61C-301.125,1122.79 -301.752,1121.41 -302.181,1120.49C-302.61,1119.57 -303.329,1118.08 -304.34,1116.01C-305.35,1113.95 -306.131,1112.37 -306.683,1111.26C-307.235,1110.16 -307.66,1109.35 -307.959,1108.83C-308.257,1108.31 -308.713,1107.5 -309.328,1106.41C-309.943,1105.31 -310.477,1104.4 -310.932,1103.65C-311.386,1102.91 -311.843,1102.24 -312.304,1101.65C-312.765,1101.06 -313.194,1100.05 -313.593,1098.63" style="fill:none;fill-rule:nonzero;stroke:rgb(23,22,18);stroke-width:7.11px;"/>
        <path id="STROKE_2d8842b0-3267-41c2-8f9a-3c030b1b9154" d="M-315.764,1100.26C-315.754,1100.28 -315.755,1100.28 -315.767,1100.27C-315.779,1100.26 -315.78,1100.26 -315.769,1100.27C-315.758,1100.28 -315.753,1100.28 -315.756,1100.28C-315.758,1100.28 -315.802,1100.25 -315.889,1100.18C-315.975,1100.12 -316.01,1100.08 -315.995,1100.07C-315.979,1100.06 -315.978,1100.07 -315.991,1100.08C-316.004,1100.1 -315.816,1099.86 -315.426,1099.37C-315.037,1098.88 -314.709,1098.43 -314.442,1098.01C-314.176,1097.59 -313.953,1097.24 -313.773,1096.95C-313.594,1096.66 -313.453,1096.42 -313.351,1096.25C-313.249,1096.08 -313.167,1095.94 -313.106,1095.84C-313.045,1095.75 -312.86,1095.42 -312.551,1094.87C-312.241,1094.33 -311.992,1093.88 -311.804,1093.53C-311.616,1093.18 -311.453,1092.87 -311.315,1092.6C-311.176,1092.32 -310.93,1091.86 -310.577,1091.2C-310.224,1090.54 -309.843,1089.84 -309.435,1089.09C-309.026,1088.35 -308.68,1087.69 -308.395,1087.12C-308.11,1086.54 -306.468,1083.6 -303.468,1078.28C-300.469,1072.96 -298.127,1068.81 -296.443,1065.82C-294.76,1062.83 -293.57,1060.7 -292.873,1059.41C-292.176,1058.12 -291.631,1057.11 -291.236,1056.38C-290.841,1055.66 -290.34,1054.73 -289.732,1053.61C-289.123,1052.48 -288.478,1051.28 -287.797,1050.01C-287.116,1048.74 -286.396,1047.38 -285.639,1045.92C-284.881,1044.47 -284.317,1043.39 -283.946,1042.69C-283.575,1041.99 -283.166,1041.18 -282.721,1040.27C-282.275,1039.36 -281.529,1037.9 -280.484,1035.88C-279.439,1033.86 -278.644,1032.32 -278.098,1031.28C-277.553,1030.23 -277.132,1029.44 -276.835,1028.89C-276.538,1028.35 -276.099,1027.53 -275.518,1026.44C-274.937,1025.36 -274.482,1024.51 -274.155,1023.9C-273.827,1023.28 -273.197,1022.12 -272.266,1020.4C-271.334,1018.69 -270.622,1017.38 -270.129,1016.5C-269.637,1015.61 -269.19,1014.78 -268.789,1014.02C-268.388,1013.25 -268.076,1012.67 -267.853,1012.27C-267.63,1011.87 -267.456,1011.56 -267.331,1011.33C-267.205,1011.1 -266.914,1010.54 -266.459,1009.65C-266.004,1008.76 -265.534,1007.88 -265.047,1007C-264.56,1006.13 -264.167,1005.42 -263.866,1004.88C-263.566,1004.34 -263.307,1003.85 -263.09,1003.42C-262.873,1002.99 -262.42,1002.16 -261.732,1000.95C-261.043,999.742 -260.33,998.499 -259.593,997.226C-258.855,995.952 -258.263,994.964 -257.817,994.262C-257.371,993.56 -256.936,992.848 -256.511,992.127C-256.086,991.406 -255.585,990.602 -255.008,989.717C-254.431,988.831 -253.912,988.012 -253.452,987.26C-252.993,986.508 -252.636,985.933 -252.381,985.535C-252.127,985.138 -251.935,984.827 -251.805,984.602C-251.675,984.377 -251.096,983.43 -250.068,981.759C-249.041,980.089 -248.248,978.813 -247.691,977.93C-247.134,977.048 -246.717,976.404 -246.442,975.999C-246.167,975.594 -245.914,975.237 -245.681,974.928C-245.449,974.619 -244.821,974.264 -243.797,973.861" style="fill:none;fill-rule:nonzero;stroke:rgb(23,22,18);stroke-width:8.09px;"/>
        <path id="STROKE_001a5e66-19bb-44bf-9729-f01b2201d548" d="M-95.59,1221.57C-95.833,1221.69 -95.923,1221.74 -95.86,1221.71C-96.055,1221.8 -96.14,1221.84 -96.116,1221.84C-96.058,1221.81 -96.121,1221.84 -96.306,1221.93C-96.491,1222.01 -97.138,1222.32 -98.247,1222.83C-98.192,1222.53 -98.164,1222.43 -98.163,1222.52C-98.085,1222.42 -97.998,1222.31 -97.903,1222.18C-97.807,1222.06 -97.731,1221.96 -97.674,1221.88C-97.617,1221.8 -97.588,1221.76 -97.587,1221.75C-97.585,1221.74 -97.528,1221.67 -97.416,1221.54C-97.304,1221.42 -96.928,1220.81 -96.288,1219.71C-95.648,1218.62 -95.08,1217.65 -94.584,1216.8C-94.088,1215.95 -93.513,1214.91 -92.858,1213.68C-92.203,1212.45 -91.686,1211.43 -91.308,1210.64C-90.929,1209.84 -90.609,1209.19 -90.346,1208.69C-90.083,1208.18 -89.345,1206.87 -88.132,1204.73C-86.918,1202.6 -85.768,1200.56 -84.683,1198.6C-83.598,1196.64 -82.788,1195.18 -82.255,1194.2C-81.722,1193.23 -81.105,1192.14 -80.404,1190.95C-79.703,1189.76 -79.158,1188.83 -78.767,1188.17C-78.376,1187.51 -77.698,1186.38 -76.731,1184.79C-75.764,1183.2 -74.767,1181.64 -73.74,1180.09C-72.713,1178.54 -71.957,1177.37 -71.474,1176.58C-70.991,1175.79 -70.469,1174.95 -69.906,1174.06C-69.344,1173.17 -68.604,1172.01 -67.686,1170.58C-66.768,1169.14 -65.976,1167.87 -65.31,1166.76C-64.645,1165.64 -63.669,1164 -62.384,1161.84C-61.099,1159.67 -60.126,1158.02 -59.467,1156.86C-58.808,1155.71 -58.311,1154.85 -57.975,1154.28C-57.64,1153.71 -57.089,1152.7 -56.323,1151.26C-55.557,1149.82 -54.374,1147.62 -52.774,1144.68C-51.174,1141.73 -49.887,1139.38 -48.912,1137.63C-47.937,1135.88 -47.125,1134.41 -46.476,1133.21C-45.827,1132.01 -44.731,1130.09 -43.186,1127.45C-41.641,1124.8 -40.448,1122.71 -39.606,1121.17C-38.764,1119.63 -38.12,1118.5 -37.674,1117.78C-37.229,1117.06 -36.817,1116.29 -36.438,1115.48C-36.059,1114.66 -35.775,1114.05 -35.584,1113.64C-35.394,1113.23 -34.949,1112.34 -34.248,1110.99C-33.548,1109.63 -32.898,1108.26 -32.297,1106.87C-31.697,1105.49 -31.302,1104.46 -31.112,1103.8C-30.922,1103.14 -30.762,1102.65 -30.631,1102.34C-30.5,1102.02 -30.391,1101.79 -30.306,1101.64C-30.22,1101.5 -30.136,1101.42 -30.055,1101.4C-29.974,1101.38 -29.847,1101.35 -29.673,1101.31" style="fill:none;fill-rule:nonzero;stroke:rgb(23,22,18);stroke-width:7.19px;"/>
        <path id="STROKE_eeb77f00-9b02-4b72-8939-030095944680" d="M-28.745,1098.13C-28.664,1098.17 -28.853,1098.22 -29.31,1098.29C-29.236,1098.32 -29.715,1097.3 -30.746,1095.24C-31.777,1093.18 -32.71,1091.51 -33.544,1090.22C-34.377,1088.93 -35.067,1087.89 -35.612,1087.09C-36.157,1086.28 -36.568,1085.69 -36.846,1085.31C-37.124,1084.93 -37.577,1084.24 -38.204,1083.25C-38.832,1082.25 -39.963,1080.45 -41.597,1077.86C-43.232,1075.26 -44.514,1073.2 -45.444,1071.68C-46.374,1070.16 -47.078,1069.03 -47.556,1068.29C-48.034,1067.56 -48.779,1066.37 -49.792,1064.73C-50.805,1063.09 -51.643,1061.74 -52.306,1060.66C-52.97,1059.59 -53.459,1058.79 -53.773,1058.28C-54.087,1057.77 -54.609,1056.93 -55.338,1055.75C-56.067,1054.57 -56.726,1053.5 -57.317,1052.53C-57.908,1051.56 -58.533,1050.5 -59.19,1049.36C-59.847,1048.22 -60.512,1047.11 -61.185,1046.04C-61.858,1044.96 -62.606,1043.72 -63.427,1042.3C-64.249,1040.88 -65.263,1039.15 -66.469,1037.11C-67.675,1035.08 -69.108,1032.66 -70.767,1029.86C-72.426,1027.06 -73.797,1024.77 -74.88,1022.98C-75.963,1021.2 -76.845,1019.72 -77.524,1018.55C-78.203,1017.39 -78.703,1016.54 -79.023,1016C-79.342,1015.46 -79.991,1014.39 -80.969,1012.78C-81.947,1011.17 -83.151,1009.21 -84.58,1006.89C-86.009,1004.58 -87.27,1002.58 -88.363,1000.89C-89.457,999.205 -90.285,997.912 -90.846,997.012C-91.408,996.113 -91.823,995.463 -92.091,995.063C-92.359,994.663 -93.01,993.638 -94.045,991.989C-95.08,990.339 -96.157,988.475 -97.275,986.396C-98.393,984.317 -99.278,982.713 -99.931,981.584C-100.583,980.454 -101.083,979.631 -101.431,979.115C-101.779,978.599 -102.158,978.108 -102.569,977.643C-102.979,977.178 -103.612,976.666 -104.467,976.109" style="fill:none;fill-rule:nonzero;stroke:rgb(23,22,18);stroke-width:6.67px;"/>
    </g>
</svg>
